REM MD5 05aae0c2cf13206aa57f8f2b84c690ad
FILE "Super Dropzone - Intergalactic Rescue Mission (Europe).bin" BINARY
  TRACK 01 MODE2/2352
    INDEX 01 00:00:00
  TRACK 02 AUDIO
    INDEX 00 05:17:26
    INDEX 01 05:19:26
  TRACK 03 AUDIO
    INDEX 00 07:11:74
    INDEX 01 07:13:74
  TRACK 04 AUDIO
    INDEX 00 08:12:22
    INDEX 01 08:14:22
  TRACK 05 AUDIO
    INDEX 00 10:06:70
    INDEX 01 10:08:70
  TRACK 06 AUDIO
    INDEX 00 11:07:18
    INDEX 01 11:09:18
REM LEADOUT 15:09:20
